<svg xmlns="http://www.w3.org/2000/svg" xmlns:xlink="http://www.w3.org/1999/xlink" width="1600" zoomAndPan="magnify" viewBox="0 0 1200 675.000002" height="900" preserveAspectRatio="xMidYMid meet" version="1.0"><defs><g/></defs><g fill="#ffffff" fill-opacity="1"><g transform="translate(0.887572, 446.704818)"><g><path d="M 127.078125 -98.765625 C 127.078125 -115.753906 124.894531 -127.785156 120.53125 -134.859375 C 116.164062 -141.941406 108.671875 -145.484375 98.046875 -145.484375 C 94.742188 -145.484375 91.320312 -145.304688 87.78125 -144.953125 C 84.25 -144.597656 80.828125 -144.1875 77.515625 -143.71875 L 77.515625 0 L 24.78125 0 L 24.78125 -179.828125 C 29.257812 -181.003906 34.507812 -182.238281 40.53125 -183.53125 C 46.550781 -184.832031 52.921875 -186.015625 59.640625 -187.078125 C 66.367188 -188.140625 73.269531 -188.960938 80.34375 -189.546875 C 87.425781 -190.140625 94.390625 -190.4375 101.234375 -190.4375 C 114.691406 -190.4375 125.609375 -188.722656 133.984375 -185.296875 C 142.359375 -181.878906 149.257812 -177.8125 154.6875 -173.09375 C 162.238281 -178.519531 170.910156 -182.765625 180.703125 -185.828125 C 190.503906 -188.898438 199.53125 -190.4375 207.78125 -190.4375 C 222.65625 -190.4375 234.867188 -188.367188 244.421875 -184.234375 C 253.984375 -180.109375 261.59375 -174.269531 267.25 -166.71875 C 272.914062 -159.175781 276.8125 -150.210938 278.9375 -139.828125 C 281.0625 -129.441406 282.125 -117.878906 282.125 -105.140625 L 282.125 0 L 229.375 0 L 229.375 -98.765625 C 229.375 -115.753906 227.191406 -127.785156 222.828125 -134.859375 C 218.460938 -141.941406 210.972656 -145.484375 200.359375 -145.484375 C 197.523438 -145.484375 193.570312 -144.773438 188.5 -143.359375 C 183.425781 -141.941406 179.238281 -140.171875 175.9375 -138.046875 C 177.582031 -132.617188 178.640625 -126.894531 179.109375 -120.875 C 179.585938 -114.863281 179.828125 -108.4375 179.828125 -101.59375 L 179.828125 0 L 127.078125 0 Z M 127.078125 -98.765625 "/></g></g></g><g fill="#ffffff" fill-opacity="1"><g transform="translate(306.016163, 446.704818)"><g><path d="M 45.3125 65.484375 L -8.84375 65.484375 L 110.09375 -277.171875 L 163.546875 -277.171875 Z M 45.3125 65.484375 "/></g></g></g><g fill="#ffffff" fill-opacity="1"><g transform="translate(460.704334, 446.704818)"><g><path d="M 15.921875 -93.09375 C 15.921875 -106.550781 18.101562 -119.238281 22.46875 -131.15625 C 26.84375 -143.070312 33.160156 -153.453125 41.421875 -162.296875 C 49.679688 -171.148438 59.707031 -178.171875 71.5 -183.359375 C 83.300781 -188.554688 96.753906 -191.15625 111.859375 -191.15625 C 121.765625 -191.15625 130.847656 -190.269531 139.109375 -188.5 C 147.367188 -186.726562 155.394531 -184.191406 163.1875 -180.890625 L 152.21875 -138.765625 C 147.257812 -140.648438 141.828125 -142.300781 135.921875 -143.71875 C 130.023438 -145.132812 123.421875 -145.84375 116.109375 -145.84375 C 100.535156 -145.84375 88.910156 -141.003906 81.234375 -131.328125 C 73.566406 -121.648438 69.734375 -108.90625 69.734375 -93.09375 C 69.734375 -76.34375 73.332031 -63.363281 80.53125 -54.15625 C 87.726562 -44.957031 100.296875 -40.359375 118.234375 -40.359375 C 124.597656 -40.359375 131.4375 -40.945312 138.75 -42.125 C 146.070312 -43.300781 152.800781 -45.1875 158.9375 -47.78125 L 166.375 -4.609375 C 160.238281 -2.003906 152.566406 0.238281 143.359375 2.125 C 134.160156 4.007812 124.015625 4.953125 112.921875 4.953125 C 95.929688 4.953125 81.300781 2.414062 69.03125 -2.65625 C 56.757812 -7.726562 46.671875 -14.628906 38.765625 -23.359375 C 30.859375 -32.085938 25.070312 -42.410156 21.40625 -54.328125 C 17.75 -66.253906 15.921875 -79.175781 15.921875 -93.09375 Z M 15.921875 -93.09375 "/></g></g></g><g fill="#ffffff" fill-opacity="1"><g transform="translate(637.69302, 446.704818)"><g><path d="M 24.78125 0 L 24.78125 -266.203125 L 77.515625 -274.6875 L 77.515625 -185.484375 C 81.054688 -186.660156 85.597656 -187.78125 91.140625 -188.84375 C 96.691406 -189.90625 102.0625 -190.4375 107.25 -190.4375 C 122.351562 -190.4375 134.921875 -188.367188 144.953125 -184.234375 C 154.984375 -180.109375 163.003906 -174.269531 169.015625 -166.71875 C 175.035156 -159.175781 179.285156 -150.210938 181.765625 -139.828125 C 184.242188 -129.441406 185.484375 -117.878906 185.484375 -105.140625 L 185.484375 0 L 132.75 0 L 132.75 -98.765625 C 132.75 -115.753906 130.5625 -127.785156 126.1875 -134.859375 C 121.820312 -141.941406 113.742188 -145.484375 101.953125 -145.484375 C 97.234375 -145.484375 92.804688 -145.070312 88.671875 -144.25 C 84.546875 -143.425781 80.828125 -142.539062 77.515625 -141.59375 L 77.515625 0 Z M 24.78125 0 "/></g></g></g><g fill="#ffffff" fill-opacity="1"><g transform="translate(846.185753, 446.704818)"><g><path d="M 95.9375 -36.8125 C 101.125 -36.8125 106.078125 -36.925781 110.796875 -37.15625 C 115.515625 -37.394531 119.289062 -37.753906 122.125 -38.234375 L 122.125 -78.234375 C 120 -78.703125 116.8125 -79.171875 112.5625 -79.640625 C 108.3125 -80.117188 104.421875 -80.359375 100.890625 -80.359375 C 95.929688 -80.359375 91.269531 -80.0625 86.90625 -79.46875 C 82.539062 -78.875 78.703125 -77.75 75.390625 -76.09375 C 72.085938 -74.445312 69.492188 -72.207031 67.609375 -69.375 C 65.722656 -66.550781 64.78125 -63.015625 64.78125 -58.765625 C 64.78125 -50.503906 67.550781 -44.78125 73.09375 -41.59375 C 78.644531 -38.40625 86.257812 -36.8125 95.9375 -36.8125 Z M 91.6875 -191.15625 C 107.257812 -191.15625 120.238281 -189.382812 130.625 -185.84375 C 141.007812 -182.300781 149.328125 -177.222656 155.578125 -170.609375 C 161.828125 -164.003906 166.25 -155.984375 168.84375 -146.546875 C 171.445312 -137.109375 172.75 -126.609375 172.75 -115.046875 L 172.75 -5.3125 C 165.195312 -3.65625 154.691406 -1.707031 141.234375 0.53125 C 127.785156 2.769531 111.503906 3.890625 92.390625 3.890625 C 80.359375 3.890625 69.441406 2.828125 59.640625 0.703125 C 49.847656 -1.421875 41.410156 -4.898438 34.328125 -9.734375 C 27.253906 -14.566406 21.828125 -20.878906 18.046875 -28.671875 C 14.273438 -36.460938 12.390625 -46.019531 12.390625 -57.34375 C 12.390625 -68.195312 14.570312 -77.398438 18.9375 -84.953125 C 23.300781 -92.503906 29.140625 -98.519531 36.453125 -103 C 43.773438 -107.488281 52.15625 -110.734375 61.59375 -112.734375 C 71.03125 -114.742188 80.820312 -115.75 90.96875 -115.75 C 97.8125 -115.75 103.890625 -115.453125 109.203125 -114.859375 C 114.515625 -114.273438 118.820312 -113.507812 122.125 -112.5625 L 122.125 -117.515625 C 122.125 -126.484375 119.410156 -133.679688 113.984375 -139.109375 C 108.554688 -144.535156 99.117188 -147.25 85.671875 -147.25 C 76.703125 -147.25 67.847656 -146.597656 59.109375 -145.296875 C 50.378906 -144.003906 42.828125 -142.179688 36.453125 -139.828125 L 29.734375 -182.296875 C 32.804688 -183.242188 36.640625 -184.25 41.234375 -185.3125 C 45.835938 -186.375 50.851562 -187.316406 56.28125 -188.140625 C 61.707031 -188.960938 67.429688 -189.671875 73.453125 -190.265625 C 79.472656 -190.859375 85.550781 -191.15625 91.6875 -191.15625 Z M 91.6875 -191.15625 "/></g></g></g><g fill="#ffffff" fill-opacity="1"><g transform="translate(1041.935329, 446.704818)"><g><path d="M 23.015625 -232.5625 L 75.75 -241.0625 L 75.75 -186.203125 L 139.109375 -186.203125 L 139.109375 -142.296875 L 75.75 -142.296875 L 75.75 -76.8125 C 75.75 -65.71875 77.695312 -56.867188 81.59375 -50.265625 C 85.488281 -43.660156 93.335938 -40.359375 105.140625 -40.359375 C 110.796875 -40.359375 116.632812 -40.890625 122.65625 -41.953125 C 128.675781 -43.015625 134.160156 -44.488281 139.109375 -46.375 L 146.546875 -5.3125 C 140.171875 -2.71875 133.085938 -0.476562 125.296875 1.40625 C 117.515625 3.300781 107.960938 4.25 96.640625 4.25 C 82.242188 4.25 70.320312 2.300781 60.875 -1.59375 C 51.4375 -5.488281 43.882812 -10.914062 38.21875 -17.875 C 32.5625 -24.832031 28.613281 -33.265625 26.375 -43.171875 C 24.132812 -53.085938 23.015625 -64.066406 23.015625 -76.109375 Z M 23.015625 -232.5625 "/></g></g></g></svg>