<svg xmlns="http://www.w3.org/2000/svg" version="1.1" xmlns:xlink="http://www.w3.org/1999/xlink" xmlns:svgjs="http://svgjs.dev/svgjs" width="80" height="80"><svg xmlns="http://www.w3.org/2000/svg" xmlns:xlink="http://www.w3.org/1999/xlink" width="80" zoomAndPan="magnify" viewBox="0 0 60 60" height="80" preserveAspectRatio="xMidYMid meet" version="1.0"><defs><g></g></defs><g fill="#7c3aed" fill-opacity="1"><g transform="translate(-2.722049, 44.726496)"><g><path d="M 16.84375 -13.09375 C 16.84375 -15.34375 16.550781 -16.9375 15.96875 -17.875 C 15.394531 -18.8125 14.40625 -19.28125 13 -19.28125 C 12.5625 -19.28125 12.101562 -19.253906 11.625 -19.203125 C 11.15625 -19.160156 10.703125 -19.109375 10.265625 -19.046875 L 10.265625 0 L 3.28125 0 L 3.28125 -23.828125 C 3.875 -23.984375 4.566406 -24.144531 5.359375 -24.3125 C 6.160156 -24.488281 7.003906 -24.644531 7.890625 -24.78125 C 8.785156 -24.925781 9.703125 -25.035156 10.640625 -25.109375 C 11.585938 -25.191406 12.515625 -25.234375 13.421875 -25.234375 C 15.203125 -25.234375 16.644531 -25.003906 17.75 -24.546875 C 18.863281 -24.097656 19.78125 -23.5625 20.5 -22.9375 C 21.5 -23.65625 22.644531 -24.21875 23.9375 -24.625 C 25.238281 -25.03125 26.4375 -25.234375 27.53125 -25.234375 C 29.5 -25.234375 31.113281 -24.957031 32.375 -24.40625 C 33.644531 -23.863281 34.65625 -23.09375 35.40625 -22.09375 C 36.164062 -21.09375 36.6875 -19.90625 36.96875 -18.53125 C 37.25 -17.15625 37.390625 -15.625 37.390625 -13.9375 L 37.390625 0 L 30.390625 0 L 30.390625 -13.09375 C 30.390625 -15.34375 30.097656 -16.9375 29.515625 -17.875 C 28.941406 -18.8125 27.953125 -19.28125 26.546875 -19.28125 C 26.171875 -19.28125 25.644531 -19.1875 24.96875 -19 C 24.300781 -18.8125 23.75 -18.578125 23.3125 -18.296875 C 23.53125 -17.578125 23.671875 -16.816406 23.734375 -16.015625 C 23.796875 -15.222656 23.828125 -14.375 23.828125 -13.46875 L 23.828125 0 L 16.84375 0 Z M 16.84375 -13.09375 "></path></g></g></g><g fill="#7c3aed" fill-opacity="1"><g transform="translate(37.709351, 44.726496)"><g><path d="M 6 8.671875 L -1.171875 8.671875 L 14.59375 -36.734375 L 21.671875 -36.734375 Z M 6 8.671875 "></path></g></g></g></svg><style>@media (prefers-color-scheme: light) { :root { filter: none; } }
@media (prefers-color-scheme: dark) { :root { filter: none; } }
</style></svg>